PathFileType	4	(X/Y/Z)	/Users/itak/Documents/Research/Walk-IL/dataset/trc/00367_00011.trc
DataRate	CameraRate	NumFrames	NumMarkers	Units	OrigDataRate	OrigDataStartFrame	OrigNumFrames
100.000000	100.000000	4	53	mm	100.000000	0	554
Frame#	Time	RPSI			LPSI			L3			STRN			T10			C7			CLAV			RBAK			LBAK			LSHO			LUPA			LAEL			LAOL			LWTS			LWPS			LFRA			LIFD			LHPS			LHTS			RSHO			RUPA			RAEL			RAOL			RWTS			RWPS			RFRA			RIFD			RHTS			RHPS			RBHD			LFHD			RFHD			LBHD			LHIP			RHIP			RASI			LASI			LKNE			LTHI			LANK			LTIP			LTOE			LMT1			LMT5			LHEE			RKNE			RTHI			RANK			RTIP			RTOE			RMT1			RMT5			RHEE			
		X1	Y1	Z1	X2	Y2	Z2	X3	Y3	Z3	X4	Y4	Z4	X5	Y5	Z5	X6	Y6	Z6	X7	Y7	Z7	X8	Y8	Z8	X9	Y9	Z9	X10	Y10	Z10	X11	Y11	Z11	X12	Y12	Z12	X13	Y13	Z13	X14	Y14	Z14	X15	Y15	Z15	X16	Y16	Z16	X17	Y17	Z17	X18	Y18	Z18	X19	Y19	Z19	X20	Y20	Z20	X21	Y21	Z21	X22	Y22	Z22	X23	Y23	Z23	X24	Y24	Z24	X25	Y25	Z25	X26	Y26	Z26	X27	Y27	Z27	X28	Y28	Z28	X29	Y29	Z29	X30	Y30	Z30	X31	Y31	Z31	X32	Y32	Z32	X33	Y33	Z33	X34	Y34	Z34	X35	Y35	Z35	X36	Y36	Z36	X37	Y37	Z37	X38	Y38	Z38	X39	Y39	Z39	X40	Y40	Z40	X41	Y41	Z41	X42	Y42	Z42	X43	Y43	Z43	X44	Y44	Z44	X45	Y45	Z45	X46	Y46	Z46	X47	Y47	Z47	X48	Y48	Z48	X49	Y49	Z49	X50	Y50	Z50	X51	Y51	Z51	X52	Y52	Z52	X53	Y53	Z53	

1	0	-1471.236450195312	983.53955078125	-63.10926818847656	-1462.811157226562	981.7947387695312	-191.3970794677734	-1468.389038085938	1032.595458984375	-124.137336730957	-1250.230590820312	1235.850830078125	-126.0648880004883	-1486.7724609375	1151.69580078125	-134.9040679931641	-1461.177978515625	1402.638061523438	-155.1148376464844	-1301.063720703125	1357.790405273438	-136.8658905029297	-1500.961303710938	1261.870849609375	-88.24820709228516	-1463.2978515625	1361.962524414062	-256.0422668457031	-1375.551025390625	1384.337036132812	-307.1031494140625	-1383.403442382812	1260.709350585938	-371.2731323242188	-1357.4287109375	1057.613159179688	-374.9956665039062	-1424.013549804688	1043.204345703125	-324.3439025878906	-1257.446533203125	821.8536376953125	-312.9585876464844	-1290.7666015625	806.781494140625	-372.884033203125	-1338.0458984375	954.0081176757812	-377.3572082519531	-1244.603515625	656.2215576171875	-304.7926330566406	-1290.9873046875	736.5679931640625	-364.3744506835938	-1237.166259765625	746.1845703125	-323.7361755371094	-1416.319091796875	1397.634521484375	13.57888984680176	-1427.7451171875	1332.29345703125	75.92691802978516	-1408.279907226562	1064.61474609375	112.0189437866211	-1438.77197265625	1056.633178710938	22.69797706604004	-1281.517822265625	843.6534423828125	75.63142395019531	-1321.880493164062	826.9777221679688	140.1271514892578	-1380.0244140625	999.4276733398438	124.0394134521484	-1260.687377929688	669.708740234375	94.32454681396484	-1249.885375976562	742.0045166015625	93.92091369628906	-1302.641845703125	743.2662353515625	139.2957458496094	-1440.562255859375	1606.360473632812	-68.17193603515625	-1268.645263671875	1641.678466796875	-181.4971923828125	-1281.719360351562	1641.636352539062	-81.95829010009766	-1447.7001953125	1598.567260742188	-212.494140625	-1370.712524414062	925.158203125	-290.1254272460938	-1398.811889648438	932.0986328125	50.91634368896484	-1290.524169921875	961.418701171875	13.40906715393066	-1253.607543945312	954.202392578125	-222.8729705810547	-1334.726196289062	467.5676574707031	-274.9353942871094	-1328.689453125	606.0081176757812	-282.4971008300781	-1419.3232421875	48.1549186706543	-265.2497863769531	-1377.528442382812	251.5555114746094	-281.0161743164062	-1216.358276367188	47.03400802612305	-198.0390014648438	-1286.486206054688	36.9462890625	-157.7281951904297	-1293.541259765625	42.81498718261719	-273.0560607910156	-1454.6162109375	45.0765266418457	-198.6628875732422	-1364.942138671875	466.3729858398438	47.64711761474609	-1328.04248046875	726.5922241210938	67.33701324462891	-1412.828857421875	51.82150650024414	32.66079330444336	-1356.896362304688	347.4651489257812	40.73887634277344	-1218.572021484375	48.99444961547852	-13.76535606384277	-1273.429565429688	46.65739822387695	-55.27948379516602	-1311.241455078125	40.25822830200195	56.10853576660156	-1461.673583984375	52.40973281860352	-17.40626525878906	
2	0.01	-1471.22119140625	983.5372314453125	-63.08773422241211	-1462.815795898438	981.79345703125	-191.3693389892578	-1468.391845703125	1032.58203125	-124.1166610717773	-1250.231201171875	1235.860717773438	-126.0611953735352	-1486.779541015625	1151.66943359375	-134.8808441162109	-1461.211181640625	1402.617797851562	-155.1194152832031	-1301.110717773438	1357.79931640625	-136.8469390869141	-1501.013305664062	1261.854858398438	-88.24754333496094	-1463.3271484375	1361.933471679688	-256.0443725585938	-1375.5849609375	1384.307861328125	-307.1120910644531	-1383.429565429688	1260.671508789062	-371.2642822265625	-1357.443359375	1057.576782226562	-374.9658203125	-1424.027954101562	1043.1689453125	-324.3149108886719	-1257.440063476562	821.8262329101562	-312.9223327636719	-1290.758911132812	806.7544555664062	-372.8255920410156	-1338.035766601562	953.9714965820312	-377.3083190917969	-1244.687622070312	656.165771484375	-304.728515625	-1290.948364257812	736.519287109375	-364.3021240234375	-1237.138793945312	746.1806030273438	-323.6993713378906	-1416.376098632812	1397.64501953125	13.57180118560791	-1427.811401367188	1332.3037109375	75.94043731689453	-1408.348510742188	1064.623046875	112.0337066650391	-1438.804321289062	1056.631469726562	22.69432067871094	-1281.560668945312	843.61865234375	75.6929931640625	-1321.946166992188	826.94775390625	140.1619873046875	-1380.0771484375	999.4371337890625	124.0563888549805	-1260.921142578125	669.7279052734375	94.46673583984375	-1249.995239257812	741.9888305664062	94.03978729248047	-1302.768310546875	743.223388671875	139.3900604248047	-1440.658447265625	1606.31787109375	-68.20082092285156	-1268.834716796875	1641.733276367188	-181.580810546875	-1281.89697265625	1641.669677734375	-81.95004272460938	-1447.869140625	1598.524169921875	-212.5675354003906	-1370.709106445312	925.15625	-290.0879211425781	-1398.783569335938	932.161376953125	50.96487808227539	-1290.522094726562	961.4448852539062	13.44216728210449	-1253.628173828125	954.2020263671875	-222.8315887451172	-1334.732543945312	467.5696105957031	-274.9127502441406	-1328.696166992188	606.0099487304688	-282.4719848632812	-1419.250610351562	48.10873413085938	-265.2008972167969	-1377.535034179688	251.5578460693359	-281.0015563964844	-1216.355834960938	47.03859710693359	-198.0357360839844	-1286.465209960938	36.96675872802734	-157.7265625	-1293.539916992188	42.81797409057617	-273.0549011230469	-1454.615234375	45.07907867431641	-198.6532897949219	-1364.970336914062	466.3668518066406	47.77085494995117	-1328.02978515625	726.5834350585938	67.38908386230469	-1412.836181640625	51.81105041503906	32.65128326416016	-1356.83740234375	347.4441223144531	40.74900436401367	-1218.543090820312	48.99079132080078	-13.7476806640625	-1273.424438476562	46.70230865478516	-55.24688339233398	-1311.240112304688	40.24855422973633	56.10275650024414	-1461.673706054688	52.40066146850586	-17.40228271484375	
3	0.02	-1471.205200195312	983.5372924804688	-63.06182098388672	-1462.821411132812	981.7901611328125	-191.3336029052734	-1468.39794921875	1032.56396484375	-124.0907516479492	-1250.231811523438	1235.875244140625	-126.0558929443359	-1486.7919921875	1151.636108398438	-134.8528137207031	-1461.25048828125	1402.593017578125	-155.1222534179688	-1301.171508789062	1357.807373046875	-136.8227996826172	-1501.0732421875	1261.834838867188	-88.24559020996094	-1463.367309570312	1361.894653320312	-256.0466918945312	-1375.6298828125	1384.26904296875	-307.1224975585938	-1383.463500976562	1260.623413085938	-371.2524108886719	-1357.464477539062	1057.530395507812	-374.9304504394531	-1424.048217773438	1043.123779296875	-324.2785339355469	-1257.440551757812	821.7831420898438	-312.8783569335938	-1290.753662109375	806.7210083007812	-372.7552490234375	-1338.026123046875	953.9235229492188	-377.2485656738281	-1244.789916992188	656.0938110351562	-304.6537780761719	-1290.92822265625	736.4620361328125	-364.2225036621094	-1237.111450195312	746.168701171875	-323.6544494628906	-1416.444458007812	1397.656982421875	13.56170177459717	-1427.8955078125	1332.314575195312	75.95310211181641	-1408.441284179688	1064.638549804688	112.0515060424805	-1438.84423828125	1056.6318359375	22.69155883789062	-1281.623413085938	843.5743408203125	75.78105926513672	-1322.032592773438	826.9144287109375	140.2082214355469	-1380.142211914062	999.44921875	124.0784530639648	-1261.214477539062	669.7101440429688	94.63624572753906	-1250.143310546875	741.968505859375	94.18191528320312	-1302.937622070312	743.169677734375	139.5023345947266	-1440.787841796875	1606.270751953125	-68.23570251464844	-1269.073974609375	1641.7998046875	-181.6802978515625	-1282.110107421875	1641.703369140625	-81.94797515869141	-1448.078369140625	1598.457763671875	-212.6558685302734	-1370.706420898438	925.154052734375	-290.0417785644531	-1398.747192382812	932.2483520507812	51.02091979980469	-1290.5263671875	961.4783325195312	13.47980976104736	-1253.654663085938	954.2001342773438	-222.7826385498047	-1334.746337890625	467.5723266601562	-274.8839721679688	-1328.708618164062	606.0127563476562	-282.44140625	-1419.193481445312	48.07224655151367	-265.1606750488281	-1377.54638671875	251.56103515625	-280.9823303222656	-1216.35302734375	47.04543304443359	-198.0310363769531	-1286.4423828125	36.98763275146484	-157.7253570556641	-1293.537719726562	42.8226432800293	-273.0536193847656	-1454.613159179688	45.07968139648438	-198.6418762207031	-1364.976196289062	466.3555603027344	47.90605163574219	-1328.006469726562	726.5670776367188	67.4427490234375	-1412.840698242188	51.7879524230957	32.63505172729492	-1356.764770507812	347.4195251464844	40.76808929443359	-1218.505859375	48.98892211914062	-13.72392177581787	-1273.42041015625	46.76018142700195	-55.20180511474609	-1311.23779296875	40.23896408081055	56.09701919555664	-1461.672485351562	52.38947296142578	-17.39628791809082	
4	0.03	-1471.190307617188	983.5399780273438	-63.03283309936523	-1462.827514648438	981.7842407226562	-191.2912139892578	-1468.407958984375	1032.541625976562	-124.0610198974609	-1250.232788085938	1235.894165039062	-126.0490417480469	-1486.810791015625	1151.597412109375	-134.8214263916016	-1461.293212890625	1402.565307617188	-155.1220550537109	-1301.24365234375	1357.813232421875	-136.7949523925781	-1501.137573242188	1261.812255859375	-88.24205780029297	-1463.41796875	1361.846801757812	-256.0488586425781	-1375.685424804688	1384.221557617188	-307.1337585449219	-1383.504516601562	1260.56689453125	-371.2376403808594	-1357.49169921875	1057.475341796875	-374.8914489746094	-1424.074584960938	1043.0703125	-324.236083984375	-1257.450561523438	821.7236938476562	-312.8296508789062	-1290.752807617188	806.6824340820312	-372.6772155761719	-1338.019287109375	953.8656005859375	-377.1813354492188	-1244.90185546875	656.0076293945312	-304.5731506347656	-1290.938232421875	736.39990234375	-364.1429138183594	-1237.088989257812	746.1448364257812	-323.6034545898438	-1416.520263671875	1397.669677734375	13.54861736297607	-1427.99365234375	1332.325439453125	75.96289825439453	-1408.556030273438	1064.662231445312	112.071647644043	-1438.888916015625	1056.635131835938	22.69038963317871	-1281.707763671875	843.5233764648438	75.89619445800781	-1322.138549804688	826.8814697265625	140.2659912109375	-1380.21630859375	999.4642333984375	124.1049880981445	-1261.545654296875	669.6543579101562	94.81949615478516	-1250.326904296875	741.9476928710938	94.33843231201172	-1303.146850585938	743.1068115234375	139.6233825683594	-1440.949951171875	1606.224487304688	-68.27577209472656	-1269.352172851562	1641.8740234375	-181.7885284423828	-1282.343627929688	1641.731811523438	-81.95766448974609	-1448.317260742188	1598.365234375	-212.7533111572266	-1370.706176757812	925.1519165039062	-289.9905700683594	-1398.706298828125	932.3546752929688	51.08048248291016	-1290.5390625	961.5164794921875	13.52127361297607	-1253.686279296875	954.1964111328125	-222.7294616699219	-1334.768798828125	467.5755004882812	-274.8500366210938	-1328.727905273438	606.0164184570312	-282.4068298339844	-1419.1611328125	48.05134582519531	-265.1343688964844	-1377.562866210938	251.5647735595703	-280.9588317871094	-1216.35107421875	47.05476760864258	-198.0249633789062	-1286.418579101562	37.00763702392578	-157.7254943847656	-1293.535400390625	42.82926559448242	-273.052490234375	-1454.610107421875	45.07749557495117	-198.6296844482422	-1364.951904296875	466.33984375	48.04242324829102	-1327.97265625	726.544189453125	67.494140625	-1412.84033203125	51.75048828125	32.61306381225586	-1356.6826171875	347.3924865722656	40.79857635498047	-1218.460571289062	48.98964691162109	-13.69408130645752	-1273.419189453125	46.82997512817383	-55.14560699462891	-1311.234375	40.23055648803711	56.09199523925781	-1461.670532226562	52.37783813476562	-17.38876724243164	
